<mxfile host="Electron" agent="Mozilla/5.0 (Windows NT 10.0; Win64; x64) AppleWebKit/537.36 (KHTML, like Gecko) draw.io/24.7.17 Chrome/128.0.6613.36 Electron/32.0.1 Safari/537.36" version="24.7.17">
  <diagram name="Trang-1" id="6Ndns8e0BeEIrlVYKGCy">
    <mxGraphModel dx="1434" dy="844" grid="1" gridSize="10" guides="1" tooltips="1" connect="1" arrows="1" fold="1" page="1" pageScale="1" pageWidth="850" pageHeight="1100" math="0" shadow="0">
      <root>
        <mxCell id="0" />
        <mxCell id="1" parent="0" />
        <mxCell id="hZJ8ZNaWXopSMElYx30L-2" value="" style="edgeStyle=orthogonalEdgeStyle;rounded=0;orthogonalLoop=1;jettySize=auto;html=1;" edge="1" parent="1" source="Q71PJwNeK19KfuG6FwDq-1" target="Q71PJwNeK19KfuG6FwDq-2">
          <mxGeometry relative="1" as="geometry" />
        </mxCell>
        <mxCell id="Q71PJwNeK19KfuG6FwDq-1" value="Bắt đầu" style="rounded=1;whiteSpace=wrap;html=1;" parent="1" vertex="1">
          <mxGeometry x="360" y="60" width="120" height="60" as="geometry" />
        </mxCell>
        <mxCell id="hZJ8ZNaWXopSMElYx30L-3" value="" style="edgeStyle=orthogonalEdgeStyle;rounded=0;orthogonalLoop=1;jettySize=auto;html=1;" edge="1" parent="1" source="Q71PJwNeK19KfuG6FwDq-2" target="hZJ8ZNaWXopSMElYx30L-1">
          <mxGeometry relative="1" as="geometry" />
        </mxCell>
        <mxCell id="Q71PJwNeK19KfuG6FwDq-2" value="Nhập file" style="shape=parallelogram;perimeter=parallelogramPerimeter;whiteSpace=wrap;html=1;fixedSize=1;" parent="1" vertex="1">
          <mxGeometry x="360" y="150" width="120" height="60" as="geometry" />
        </mxCell>
        <mxCell id="hZJ8ZNaWXopSMElYx30L-30" style="edgeStyle=orthogonalEdgeStyle;rounded=0;orthogonalLoop=1;jettySize=auto;html=1;exitX=0;exitY=0.5;exitDx=0;exitDy=0;entryX=1;entryY=0.5;entryDx=0;entryDy=0;" edge="1" parent="1" source="hZJ8ZNaWXopSMElYx30L-1" target="hZJ8ZNaWXopSMElYx30L-29">
          <mxGeometry relative="1" as="geometry" />
        </mxCell>
        <mxCell id="hZJ8ZNaWXopSMElYx30L-36" style="edgeStyle=orthogonalEdgeStyle;rounded=0;orthogonalLoop=1;jettySize=auto;html=1;exitX=1;exitY=0.5;exitDx=0;exitDy=0;entryX=0;entryY=0.5;entryDx=0;entryDy=0;" edge="1" parent="1" source="hZJ8ZNaWXopSMElYx30L-1" target="hZJ8ZNaWXopSMElYx30L-6">
          <mxGeometry relative="1" as="geometry" />
        </mxCell>
        <mxCell id="hZJ8ZNaWXopSMElYx30L-1" value="Nếu đã&amp;nbsp;&lt;div&gt;load file&lt;/div&gt;" style="rhombus;whiteSpace=wrap;html=1;" vertex="1" parent="1">
          <mxGeometry x="380" y="240" width="80" height="80" as="geometry" />
        </mxCell>
        <mxCell id="hZJ8ZNaWXopSMElYx30L-10" style="edgeStyle=orthogonalEdgeStyle;rounded=0;orthogonalLoop=1;jettySize=auto;html=1;exitX=0.5;exitY=1;exitDx=0;exitDy=0;entryX=0.5;entryY=0;entryDx=0;entryDy=0;" edge="1" parent="1" source="hZJ8ZNaWXopSMElYx30L-4" target="hZJ8ZNaWXopSMElYx30L-9">
          <mxGeometry relative="1" as="geometry" />
        </mxCell>
        <mxCell id="hZJ8ZNaWXopSMElYx30L-4" value="Lấy dòng đầu tiênn của file là số đỉnh" style="rounded=0;whiteSpace=wrap;html=1;" vertex="1" parent="1">
          <mxGeometry x="510" y="340" width="120" height="60" as="geometry" />
        </mxCell>
        <mxCell id="hZJ8ZNaWXopSMElYx30L-8" style="edgeStyle=orthogonalEdgeStyle;rounded=0;orthogonalLoop=1;jettySize=auto;html=1;exitX=0.5;exitY=1;exitDx=0;exitDy=0;entryX=0.5;entryY=0;entryDx=0;entryDy=0;" edge="1" parent="1" source="hZJ8ZNaWXopSMElYx30L-6" target="hZJ8ZNaWXopSMElYx30L-4">
          <mxGeometry relative="1" as="geometry" />
        </mxCell>
        <mxCell id="hZJ8ZNaWXopSMElYx30L-6" value="Tách từng hàng trong file ra thành các phần tử" style="rounded=0;whiteSpace=wrap;html=1;" vertex="1" parent="1">
          <mxGeometry x="510" y="250" width="120" height="60" as="geometry" />
        </mxCell>
        <mxCell id="hZJ8ZNaWXopSMElYx30L-12" style="edgeStyle=orthogonalEdgeStyle;rounded=0;orthogonalLoop=1;jettySize=auto;html=1;exitX=0.5;exitY=1;exitDx=0;exitDy=0;entryX=0.5;entryY=0;entryDx=0;entryDy=0;" edge="1" parent="1" source="hZJ8ZNaWXopSMElYx30L-9" target="hZJ8ZNaWXopSMElYx30L-11">
          <mxGeometry relative="1" as="geometry" />
        </mxCell>
        <mxCell id="hZJ8ZNaWXopSMElYx30L-37" style="edgeStyle=orthogonalEdgeStyle;rounded=0;orthogonalLoop=1;jettySize=auto;html=1;exitX=1;exitY=0.5;exitDx=0;exitDy=0;entryX=0;entryY=0.5;entryDx=0;entryDy=0;" edge="1" parent="1" source="hZJ8ZNaWXopSMElYx30L-9" target="hZJ8ZNaWXopSMElYx30L-19">
          <mxGeometry relative="1" as="geometry" />
        </mxCell>
        <mxCell id="hZJ8ZNaWXopSMElYx30L-9" value="i nhỏ hơn&amp;nbsp;&lt;div&gt;số đỉnh&lt;/div&gt;" style="rhombus;whiteSpace=wrap;html=1;" vertex="1" parent="1">
          <mxGeometry x="520" y="430" width="100" height="100" as="geometry" />
        </mxCell>
        <mxCell id="hZJ8ZNaWXopSMElYx30L-14" style="edgeStyle=orthogonalEdgeStyle;rounded=0;orthogonalLoop=1;jettySize=auto;html=1;exitX=0.5;exitY=1;exitDx=0;exitDy=0;entryX=0.5;entryY=0;entryDx=0;entryDy=0;" edge="1" parent="1" source="hZJ8ZNaWXopSMElYx30L-11" target="hZJ8ZNaWXopSMElYx30L-13">
          <mxGeometry relative="1" as="geometry" />
        </mxCell>
        <mxCell id="hZJ8ZNaWXopSMElYx30L-11" value="Tách nội dung hàng i ra thành các phần tử" style="rounded=0;whiteSpace=wrap;html=1;" vertex="1" parent="1">
          <mxGeometry x="510" y="570" width="120" height="60" as="geometry" />
        </mxCell>
        <mxCell id="hZJ8ZNaWXopSMElYx30L-15" style="edgeStyle=orthogonalEdgeStyle;rounded=0;orthogonalLoop=1;jettySize=auto;html=1;exitX=0;exitY=0.5;exitDx=0;exitDy=0;entryX=0;entryY=0.5;entryDx=0;entryDy=0;" edge="1" parent="1" source="hZJ8ZNaWXopSMElYx30L-13" target="hZJ8ZNaWXopSMElYx30L-9">
          <mxGeometry relative="1" as="geometry">
            <Array as="points">
              <mxPoint x="480" y="725" />
              <mxPoint x="480" y="480" />
            </Array>
          </mxGeometry>
        </mxCell>
        <mxCell id="hZJ8ZNaWXopSMElYx30L-17" style="edgeStyle=orthogonalEdgeStyle;rounded=0;orthogonalLoop=1;jettySize=auto;html=1;exitX=0.5;exitY=1;exitDx=0;exitDy=0;entryX=0.5;entryY=0;entryDx=0;entryDy=0;" edge="1" parent="1" source="hZJ8ZNaWXopSMElYx30L-13" target="hZJ8ZNaWXopSMElYx30L-16">
          <mxGeometry relative="1" as="geometry" />
        </mxCell>
        <mxCell id="hZJ8ZNaWXopSMElYx30L-13" value="j nhỏ hơn&amp;nbsp;&lt;div&gt;số lượng phần tử&amp;nbsp;&lt;div&gt;của hàng i&lt;/div&gt;&lt;/div&gt;" style="rhombus;whiteSpace=wrap;html=1;" vertex="1" parent="1">
          <mxGeometry x="515" y="670" width="110" height="110" as="geometry" />
        </mxCell>
        <mxCell id="hZJ8ZNaWXopSMElYx30L-18" style="edgeStyle=orthogonalEdgeStyle;rounded=0;orthogonalLoop=1;jettySize=auto;html=1;exitX=1;exitY=0.5;exitDx=0;exitDy=0;entryX=1;entryY=0.5;entryDx=0;entryDy=0;" edge="1" parent="1" source="hZJ8ZNaWXopSMElYx30L-16" target="hZJ8ZNaWXopSMElYx30L-13">
          <mxGeometry relative="1" as="geometry">
            <Array as="points">
              <mxPoint x="650" y="860" />
              <mxPoint x="650" y="725" />
            </Array>
          </mxGeometry>
        </mxCell>
        <mxCell id="hZJ8ZNaWXopSMElYx30L-28" style="edgeStyle=orthogonalEdgeStyle;rounded=0;orthogonalLoop=1;jettySize=auto;html=1;exitX=0.5;exitY=1;exitDx=0;exitDy=0;entryX=0.5;entryY=0;entryDx=0;entryDy=0;" edge="1" parent="1" source="hZJ8ZNaWXopSMElYx30L-16" target="hZJ8ZNaWXopSMElYx30L-27">
          <mxGeometry relative="1" as="geometry" />
        </mxCell>
        <mxCell id="hZJ8ZNaWXopSMElYx30L-16" value="Nếu phần tử&amp;nbsp;&lt;div&gt;hàng j = 1&lt;/div&gt;" style="rhombus;whiteSpace=wrap;html=1;" vertex="1" parent="1">
          <mxGeometry x="520" y="810" width="100" height="100" as="geometry" />
        </mxCell>
        <mxCell id="hZJ8ZNaWXopSMElYx30L-24" style="edgeStyle=orthogonalEdgeStyle;rounded=0;orthogonalLoop=1;jettySize=auto;html=1;exitX=0.5;exitY=1;exitDx=0;exitDy=0;entryX=0.5;entryY=0;entryDx=0;entryDy=0;" edge="1" parent="1" source="hZJ8ZNaWXopSMElYx30L-19" target="hZJ8ZNaWXopSMElYx30L-20">
          <mxGeometry relative="1" as="geometry" />
        </mxCell>
        <mxCell id="hZJ8ZNaWXopSMElYx30L-19" value="Vẽ canvas" style="shape=process;whiteSpace=wrap;html=1;backgroundOutline=1;" vertex="1" parent="1">
          <mxGeometry x="680" y="450" width="120" height="60" as="geometry" />
        </mxCell>
        <mxCell id="hZJ8ZNaWXopSMElYx30L-25" style="edgeStyle=orthogonalEdgeStyle;rounded=0;orthogonalLoop=1;jettySize=auto;html=1;exitX=0.5;exitY=1;exitDx=0;exitDy=0;entryX=0.5;entryY=0;entryDx=0;entryDy=0;" edge="1" parent="1" source="hZJ8ZNaWXopSMElYx30L-20" target="hZJ8ZNaWXopSMElYx30L-21">
          <mxGeometry relative="1" as="geometry" />
        </mxCell>
        <mxCell id="hZJ8ZNaWXopSMElYx30L-20" value="Kiểm tra Euler" style="shape=process;whiteSpace=wrap;html=1;backgroundOutline=1;" vertex="1" parent="1">
          <mxGeometry x="680" y="540" width="120" height="60" as="geometry" />
        </mxCell>
        <mxCell id="hZJ8ZNaWXopSMElYx30L-26" style="edgeStyle=orthogonalEdgeStyle;rounded=0;orthogonalLoop=1;jettySize=auto;html=1;exitX=0.5;exitY=1;exitDx=0;exitDy=0;entryX=0.5;entryY=0;entryDx=0;entryDy=0;" edge="1" parent="1" source="hZJ8ZNaWXopSMElYx30L-21" target="hZJ8ZNaWXopSMElYx30L-22">
          <mxGeometry relative="1" as="geometry" />
        </mxCell>
        <mxCell id="hZJ8ZNaWXopSMElYx30L-21" value="Hiển thị ma trận" style="shape=process;whiteSpace=wrap;html=1;backgroundOutline=1;" vertex="1" parent="1">
          <mxGeometry x="680" y="620" width="120" height="60" as="geometry" />
        </mxCell>
        <mxCell id="hZJ8ZNaWXopSMElYx30L-22" value="Tìm chu trình Euler" style="shape=process;whiteSpace=wrap;html=1;backgroundOutline=1;" vertex="1" parent="1">
          <mxGeometry x="680" y="710" width="120" height="60" as="geometry" />
        </mxCell>
        <mxCell id="hZJ8ZNaWXopSMElYx30L-39" style="edgeStyle=orthogonalEdgeStyle;rounded=0;orthogonalLoop=1;jettySize=auto;html=1;exitX=0.5;exitY=1;exitDx=0;exitDy=0;entryX=0.5;entryY=1;entryDx=0;entryDy=0;" edge="1" parent="1" source="hZJ8ZNaWXopSMElYx30L-27" target="hZJ8ZNaWXopSMElYx30L-33">
          <mxGeometry relative="1" as="geometry" />
        </mxCell>
        <mxCell id="hZJ8ZNaWXopSMElYx30L-27" value="Thêm cạnh( i-1 , j )" style="rounded=0;whiteSpace=wrap;html=1;" vertex="1" parent="1">
          <mxGeometry x="510" y="940" width="120" height="60" as="geometry" />
        </mxCell>
        <mxCell id="hZJ8ZNaWXopSMElYx30L-38" style="edgeStyle=orthogonalEdgeStyle;rounded=0;orthogonalLoop=1;jettySize=auto;html=1;exitX=0.5;exitY=1;exitDx=0;exitDy=0;entryX=0.5;entryY=0;entryDx=0;entryDy=0;" edge="1" parent="1" source="hZJ8ZNaWXopSMElYx30L-29" target="hZJ8ZNaWXopSMElYx30L-33">
          <mxGeometry relative="1" as="geometry" />
        </mxCell>
        <mxCell id="hZJ8ZNaWXopSMElYx30L-29" value="Đọc file đã tải lên" style="rounded=0;whiteSpace=wrap;html=1;" vertex="1" parent="1">
          <mxGeometry x="209" y="250" width="120" height="60" as="geometry" />
        </mxCell>
        <mxCell id="hZJ8ZNaWXopSMElYx30L-31" value="Sai" style="text;html=1;align=center;verticalAlign=middle;resizable=0;points=[];autosize=1;strokeColor=none;fillColor=none;" vertex="1" parent="1">
          <mxGeometry x="341" y="250" width="40" height="30" as="geometry" />
        </mxCell>
        <mxCell id="hZJ8ZNaWXopSMElYx30L-32" value="Đúng" style="text;html=1;align=center;verticalAlign=middle;resizable=0;points=[];autosize=1;strokeColor=none;fillColor=none;" vertex="1" parent="1">
          <mxGeometry x="453" y="251" width="50" height="30" as="geometry" />
        </mxCell>
        <mxCell id="hZJ8ZNaWXopSMElYx30L-33" value="Kết thúc" style="rounded=1;whiteSpace=wrap;html=1;" vertex="1" parent="1">
          <mxGeometry x="209" y="340" width="120" height="60" as="geometry" />
        </mxCell>
        <mxCell id="hZJ8ZNaWXopSMElYx30L-40" value="Sai" style="text;html=1;align=center;verticalAlign=middle;resizable=0;points=[];autosize=1;strokeColor=none;fillColor=none;" vertex="1" parent="1">
          <mxGeometry x="629" y="450" width="40" height="30" as="geometry" />
        </mxCell>
        <mxCell id="hZJ8ZNaWXopSMElYx30L-41" value="Đúng" style="text;html=1;align=center;verticalAlign=middle;resizable=0;points=[];autosize=1;strokeColor=none;fillColor=none;" vertex="1" parent="1">
          <mxGeometry x="570" y="529" width="50" height="30" as="geometry" />
        </mxCell>
        <mxCell id="hZJ8ZNaWXopSMElYx30L-42" value="Đúng" style="text;html=1;align=center;verticalAlign=middle;resizable=0;points=[];autosize=1;strokeColor=none;fillColor=none;" vertex="1" parent="1">
          <mxGeometry x="520" y="778" width="50" height="30" as="geometry" />
        </mxCell>
        <mxCell id="hZJ8ZNaWXopSMElYx30L-43" value="Đúng" style="text;html=1;align=center;verticalAlign=middle;resizable=0;points=[];autosize=1;strokeColor=none;fillColor=none;" vertex="1" parent="1">
          <mxGeometry x="518" y="902" width="50" height="30" as="geometry" />
        </mxCell>
        <mxCell id="hZJ8ZNaWXopSMElYx30L-44" value="Sai" style="text;html=1;align=center;verticalAlign=middle;resizable=0;points=[];autosize=1;strokeColor=none;fillColor=none;" vertex="1" parent="1">
          <mxGeometry x="610" y="830" width="40" height="30" as="geometry" />
        </mxCell>
        <mxCell id="hZJ8ZNaWXopSMElYx30L-45" value="Sai" style="text;html=1;align=center;verticalAlign=middle;resizable=0;points=[];autosize=1;strokeColor=none;fillColor=none;" vertex="1" parent="1">
          <mxGeometry x="478" y="700" width="40" height="30" as="geometry" />
        </mxCell>
      </root>
    </mxGraphModel>
  </diagram>
</mxfile>
